<svg height="1024" preserveAspectRatio="none" viewBox="0 0 1024 1024" width="1024" xmlns="http://www.w3.org/2000/svg"><path d="m965.6 350.25q-8.6-20.85-19.4-40.85-6.1-11.35-12.9-22.4-29.35-47.55-71.55-89.8-138.25-138.25-333.8-138.25-195.5 0-333.75 138.25-138.25 138.25-138.25 333.75 0 195.55 138.25 333.8 138.25 138.2 333.75 138.2 195.55 0 333.8-138.2 76.15-76.2 110.35-169.75 27.85-76.25 27.85-164.05 0-67.35-16.4-127.95-1.85-6.85-3.9-13.6-6.15-19.95-14.05-39.15z" fill-opacity=".098039"/><path d="m966.05 378.4q-3.85-13.35-8.45-26.35-9.75-27.55-23.15-53.65-5.8-11.35-12.3-22.4-30.65-52-76.35-97.75-138.2-138.2-333.7-138.25-.05 0-.1 0-195.5 0-333.75 138.25-138.25 138.25-138.25 333.75 0 .05 0 .15.05 195.45 138.25 333.65 12.80429688 12.79804688 26.1 24.4 92.51230469 80.81757813 208.8 104.25 47.45 9.55 98.85 9.55 1.05 0 2.1 0 194.2-.75 331.7-138.2 45.17421875-45.20527344 75.55-96.55 18.69785156-31.45800781 31.8-65.25 25.55-66 29.95-140.75.85-14.4.9-29.1 0-1.05 0-2.15 0-54.52792969-10.75-104.65-1.63671875-7.71738281-3.55-15.35-1.75-6.85-3.65-13.6z" fill="#333"/><path d="m298.95 579.65h-4q-69.05-2.3-119.4 45.05-6.95 6.5-12.95 13.45-37.7 43.25-39.75 102.6-.05.2-.05.4v5.35q-.5 20.8 3.35 39.95 22.7 31.25 51.45 59.95 34.05 34.05 71.55 59.7 26.3 18 54.35 31.95 16.8 2.4 34.5 2.6 40.35.75 75.25-6.45 23.25-4.8 44.1-13.15 43.9-17.6 76.8-51.1 69.4-70.75 69.4-191.55-2.3-117.45-85.7-200.15-83.1-82.75-200.55-85.05-78.05-4.7-151.15 22.95-15.9 6.15-31 13.6-53 26-95.4 68.15-.3.25-.5.5-.2 6.75-.2 13.55 0 13.65.7 27.15.5 10.35 1.5 20.6 2.75 30.4 9.1 59.3 3.35-6.8 7.05-13.4 28.75-51.45 78.3-87.05 2.05-1.5 4.15-2.95 72.05-49.7 159.8-48.35 86.7-2.4 151.1 56 64.4 58.75 69.75 145.5 0 168.8-156.85 194.15-10.15 1.7-20.05 2-43.35 1.4-82.65-23.35-56.1-34.65-53.4-99.75.3-6.65 1.55-12.95 4.6-22.45 21.8-39.4 22.35-21.4 53.4-21.4h5q-15.35 16.75-14.05 39.35 1 22.7 17.7 38.1 10 9.3 23.35 12.7 13 3.3 26.35 0 30.7-6.05 50.75-30.4 19.65-24.35 19-55.7-4.35-42.75-37.7-69.75-33.4-27-75.75-22.7m686-67.7q0-195.9-138.5-334.4-138.55-138.55-334.45-138.55-195.9 0-334.4 138.55-5.6 5.55-10.9 11.25-34.6 36.65-59.85 77.15-4.4 7.1-8.55 14.3-2.2 3.9-4.3 7.8-5.7 10.35-10.75 20.95-7.15 14.9-13.1 30.25-5.8 14.8-10.45 30.05-1.5 4.85-2.85 9.75 45.6-31.45 97.35-50.95 8.9-3.3 17.95-6.3 71.75-23.7 147.45-22.7 176.55 0 286.3 110.1 106.45 106.4 106.1 269.2 4.65 97.45-43.05 182.85-22.3 40.15-53.05 71.95-5.25 5.35-10.7 10.55-23.35 22-51.15 39.5 21.45-1.7 42.15-5.15 2.05-.35 4.15-.7 7.8-1.4 15.55-3.05 38.75-8.25 74.8-22.85 9.05-3.75 18-7.8 24.25-11.15 47.25-25.3 47.95-29.5 90.5-72 9.45-9.45 18.25-19.2 11.6-12.8 22.1-26.05 98.15-124.25 98.15-289.2z" fill="#fc4926"/></svg>