<svg enable-background="new 0 0 1024 1024" height="1024" image-rendering="optimizeSpeed" viewBox="0 0 1024 1024" width="1024" xmlns="http://www.w3.org/2000/svg"><path d="m969.65 351.3q-8.6-20.85-19.4-40.85c-4.05-7.55-8.35-15.05-12.9-22.4-19.55-31.7-43.4-61.65-71.55-89.8-92.15-92.15-203.45-138.25-333.8-138.25s-241.6 46.1-333.75 138.25-138.25 203.4-138.25 333.75 46.1 241.65 138.25 333.8 203.4 138.2 333.75 138.2 241.65-46.05 333.8-138.2c50.75-50.8 87.55-107.4 110.35-169.75 18.55-50.85 27.85-105.5 27.85-164.05 0-44.9-5.45-87.55-16.4-127.95-1.25-4.55-2.55-9.1-3.9-13.6-4.1-13.3-8.8-26.35-14.05-39.15z" fill-opacity=".098039"/><path d="m929.85 289.65c-2.35-4.35-4.95-9-7.65-13.6-20.3-34.5-45.8-67.2-76.35-97.75-72.6-72.6-157.15-116.65-253.65-132.05-16.25-2.6-32.8-4.4-50.05-5.35-9.7-.55-19.85-.85-30.1-.85-9.35 0-18.6.25-27.9.75-118.35 6.1-220.3 51.95-305.85 137.5-20.5 20.5-38.75 41.95-54.7 64.4-15.35 21.55-28.55 44-39.6 67.2-17.65 36.9-30 76-36.9 116.8-3.35 19.4-5.45 38.9-6.4 58.8v-.025q-.65 13.158-.65 26.575c0 5.15.1 10.25.2 15.2.3 9.9.85 19.65 1.6 28.9 1 11.5 2.3 22.45 3.95 33.2 6.1 39.45 16.9 76.9 32.25 112 1.35 3.1 2.75 6.15 3.95 8.8 23.2 49.55 55.15 94.55 96.3 135.7 56.7 56.65 120.55 95.9 191.1 117.55 36.75 11.25 74.8 17.85 114.75 19.95h.4c8.5.45 16.6.7 24.5.7h3c10.3 0 20.5-.3 30.1-.8 2.5-.15 4.75-.3 6.95-.45 20.2-1.45 39.9-4.05 58.7-7.7 7.95-1.55 15.8-3.3 23.4-5.15 80.8-20.3 152.15-61.6 214.65-124.1 38-38 68.2-79.25 90.5-123.8 6.25-12.35 11.85-25.05 16.85-38 4.25-10.95 8.05-22.1 11.5-33.6 6.1-20.7 10.85-42.15 14.1-64.3.85-5.7 1.6-11.45 2.25-17.35.25-2.4.5-4.8.75-7.3.9-10.05 1.6-20.45 1.95-30.95.2-6.05.3-12.25.3-18.5 0-.65 0-1.35 0-2 0-.35 0-.65 0-1-.1-23.75-1.75-46.9-5.05-69.7-.75-5.45-1.65-10.9-2.65-16.5-1.8-10.2-4.05-20.55-6.6-30.8-1.1-4.35-2.35-9-3.65-13.6-1-3.4-2-6.85-3.15-10.5-1.6-5.15-3.4-10.5-5.3-15.85-5.05-14.25-10.85-28.25-17.45-42.15-1.85-3.8-3.75-7.65-5.7-11.5-1.45-2.85-2.95-5.7-4.65-8.8z" fill="#e88d45"/><path d="m953.2 684.05c4.25-10.95 8.05-22.1 11.5-33.6 6.1-20.7 10.85-42.15 14.1-64.3v-.025q1.056-7.213 1.9-14.525l-245.6-245.6-278-92 50 50-234 34 62 62-192 156 442.825 442.825.025.025c7.6-1.15 14.8-2.4 21.85-3.75 7.95-1.55 15.8-3.3 23.4-5.15 80.8-20.3 152.15-61.6 214.65-124.1 38-38 68.2-79.25 90.5-123.8 6.25-12.35 11.85-25.05 16.85-38z" fill-opacity=".2"/><path d="m671 282.2q-3.05-3.1-7.3-5l-180-79c-5.85-2.55-11.65-2.65-17.5-.35-5.9 2.3-10.1 6.35-12.65 12.15s-2.65 11.65-.35 17.5 6.35 10.05 12.1 12.6l68.1 29.9-243.35-7.45c-8.25-.25-15.45 2.45-21.5 8.15-6.1 5.7-9.3 12.7-9.55 21-.25 8.25 2.45 15.45 8.15 21.55 5.7 6.05 12.7 9.25 21.05 9.55l124.75 3.8-259.3 150.8c-9.45 5.5-15.55 13.5-18.35 24.05-2.8 10.5-1.45 20.5 4.05 29.95s13.5 15.6 24 18.4 20.5 1.45 30.05-4l130.35-75.75c-1.4 10.9-2.1 22.1-2.1 33.55 0 67.45 23.85 125.05 71.55 172.75s105.3 71.55 172.75 71.55 125.05-23.85 172.75-71.55 71.55-105.3 71.55-172.75-23.85-125.05-71.55-172.75c-20.7-20.7-43.25-36.9-67.7-48.65zm37.35 219.85c0 38.75-13.7 71.85-41.05 99.25-27.4 27.35-60.5 41.05-99.25 41.05s-71.85-13.7-99.2-41.05c-27.4-27.4-41.1-60.5-41.1-99.25s13.7-71.85 41.1-99.2c27.35-27.4 60.45-41.1 99.2-41.1s71.85 13.7 99.25 41.1c27.35 27.35 41.05 60.45 41.05 99.2z" fill="#fff"/><path d="m708.35 502.05c0-38.75-13.7-71.85-41.05-99.2-27.4-27.4-60.5-41.1-99.25-41.1s-71.85 13.7-99.2 41.1c-27.4 27.35-41.1 60.45-41.1 99.2s13.7 71.85 41.1 99.25c27.35 27.35 60.45 41.05 99.2 41.05s71.85-13.7 99.25-41.05c27.35-27.4 41.05-60.5 41.05-99.25zm-92.4-47.85c13.2 13.2 19.8 29.15 19.8 47.85s-6.6 34.65-19.8 47.9c-13.25 13.2-29.2 19.8-47.9 19.8s-34.65-6.6-47.85-19.8c-13.25-13.25-19.85-29.2-19.85-47.9s6.6-34.65 19.85-47.85c13.2-13.25 29.15-19.85 47.85-19.85s34.65 6.6 47.9 19.85z" fill="#ccc"/><path d="m615.95 454.2c-13.25-13.25-29.2-19.85-47.9-19.85s-34.65 6.6-47.85 19.85c-13.25 13.2-19.85 29.15-19.85 47.85s6.6 34.65 19.85 47.9c13.2 13.2 29.15 19.8 47.85 19.8s34.65-6.6 47.9-19.8c13.2-13.25 19.8-29.2 19.8-47.9s-6.6-34.65-19.8-47.85z" fill="#11699c"/></svg>