<svg height="1024" preserveAspectRatio="none" viewBox="0 0 1024 1024" width="1024" xmlns="http://www.w3.org/2000/svg"><path d="m969.6 351.25q-8.6-20.85-19.4-40.85-6.1-11.35-12.9-22.4-29.35-47.55-71.55-89.8-138.25-138.25-333.8-138.25-195.5 0-333.75 138.25-138.25 138.25-138.25 333.75 0 195.55 138.25 333.8 138.25 138.2 333.75 138.2 195.55 0 333.8-138.2 76.15-76.2 110.35-169.75 27.85-76.25 27.85-164.05 0-67.35-16.4-127.95-1.85-6.85-3.9-13.6-6.15-19.95-14.05-39.15z" fill-opacity=".098039"/><path d="m969.7 392q-1.75-6.85-3.65-13.6-1.52421875-5.28554687-3.2-10.55-2.47128906-7.946875-5.25-15.8-9.75-27.55-23.15-53.65-5.8-11.35-12.3-22.4-30.65-52-76.35-97.75-109-109-253.65-132.05-24.5-3.9-50.05-5.35-14.9-.85-30.1-.85-14.1 0-27.9.75-177.55 9.2-305.85 137.5-138.25 138.25-138.25 333.75 0 195.55 138.25 333.8 84.79003906 84.75703125 191.1 117.55 54.53808594 16.81308594 114.75 19.95.2 0 .4 0 12.15.6 24.5.7 1.5 0 3 0 15.25 0 30.1-.8 3.5-.2 6.95-.45 30.05-2.15 58.7-7.7 11.8-2.3 23.4-5.15 120.6-30.05 214.65-124.1 72.9-72.95 107.35-161.8 27.75-71.6 30.55-153.5.3-9.2.3-18.5 0-1 0-2 0-.5 0-1-.35-61.3-14.3-117z" fill="#58c8c9"/><path d="m982.55 551.55-168.55-168.55-413.65-12-190.35 380 227.7 227.7q22.78046875 3.36953125 46.4 4.6.2 0 .4 0 12.15.6 24.5.7 1.5 0 3 0 15.25 0 30.1-.8 3.5-.2 6.95-.45 30.05-2.15 58.7-7.7 11.8-2.3 23.4-5.15 120.6-30.05 214.65-124.1 72.9-72.95 107.35-161.8 24.15371094-62.32109375 29.4-132.45z" fill-opacity=".2"/><path d="m439.25 433h145.45l-72.7-217.65zm-52.1 155.85-54.15-62.95v225.1zm123.8-376.65-.2-.55-300.75 171.35 123 142.9v-92.9zm180.05 538.8v-225.05l-54.2 62.95zm0-318v92.95l123-142.95-300.8-171.35-.15.55z" fill="#164b4b"/><path d="m333 751v-225.1l-123-142.9v368zm303.8-162.1-52.1-155.9h-145.45l-52.1 155.85 124.85 145.1zm54.2-62.95v225.05h123v-368z" fill="#0f716e"/><path d="m333 525.9 54.15 62.95 52.1-155.85h-106.25zm358 .05v-92.95h-106.3l52.1 155.9z" fill="#072626"/><path d="m513.05 212.2-1.05 3.15 72.7 217.65h106.3zm-1.05 3.15-1.05-3.15-177.95 220.8h106.25z" fill="#0e1a17"/><path d="m814 751h-123" fill="none" stroke="#164b4b" stroke-linecap="round" stroke-linejoin="round" stroke-width=".1"/></svg>